<svg xmlns="http://www.w3.org/2000/svg" width="1600" height="950" viewBox="0 0 1600 950" role="img" aria-label="RewirePDF editor preview">
  <defs>
    <filter id="shadow" x="-20%" y="-20%" width="140%" height="140%">
      <feDropShadow dx="0" dy="24" stdDeviation="28" flood-color="#111827" flood-opacity=".22"/>
    </filter>
    <linearGradient id="paper" x1="0" y1="0" x2="1" y2="1">
      <stop offset="0" stop-color="#ffffff"/>
      <stop offset="1" stop-color="#f2f5f9"/>
    </linearGradient>
  </defs>
  <rect width="1600" height="950" fill="#f4f7fb"/>
  <rect x="70" y="66" width="1460" height="818" rx="26" fill="#0f1b2a" filter="url(#shadow)"/>
  <rect x="70" y="66" width="1460" height="74" rx="26" fill="#111c2c"/>
  <rect x="70" y="114" width="1460" height="26" fill="#111c2c"/>
  <circle cx="114" cy="103" r="9" fill="#ff5f56"/>
  <circle cx="145" cy="103" r="9" fill="#ffbd2e"/>
  <circle cx="176" cy="103" r="9" fill="#27c93f"/>
  <text x="224" y="110" font-family="Inter, Arial, sans-serif" font-size="24" font-weight="700" fill="#f8fafc">rewirepdf.com</text>
  <rect x="1110" y="86" width="132" height="36" rx="8" fill="#1f6feb"/>
  <text x="1136" y="111" font-family="Inter, Arial, sans-serif" font-size="16" font-weight="700" fill="#ffffff">Download</text>
  <rect x="1260" y="86" width="118" height="36" rx="8" fill="#1c2738"/>
  <text x="1290" y="111" font-family="Inter, Arial, sans-serif" font-size="16" font-weight="700" fill="#dbeafe">Sign</text>
  <rect x="1396" y="86" width="84" height="36" rx="8" fill="#1c2738"/>
  <text x="1420" y="111" font-family="Inter, Arial, sans-serif" font-size="16" font-weight="700" fill="#dbeafe">Edit</text>
  <rect x="118" y="175" width="222" height="662" rx="16" fill="#172236"/>
  <rect x="143" y="206" width="172" height="32" rx="8" fill="#253149"/>
  <text x="158" y="228" font-family="Inter, Arial, sans-serif" font-size="15" font-weight="700" fill="#d9e7ff">Tools</text>
  <g font-family="Inter, Arial, sans-serif" font-size="18" fill="#e5eefc">
    <rect x="143" y="270" width="172" height="44" rx="10" fill="#255b9f"/>
    <text x="168" y="298">Edit text</text>
    <rect x="143" y="330" width="172" height="44" rx="10" fill="#223047"/>
    <text x="168" y="358">Add text</text>
    <rect x="143" y="390" width="172" height="44" rx="10" fill="#223047"/>
    <text x="168" y="418">Highlight</text>
    <rect x="143" y="450" width="172" height="44" rx="10" fill="#223047"/>
    <text x="168" y="478">Draw</text>
    <rect x="143" y="510" width="172" height="44" rx="10" fill="#223047"/>
    <text x="168" y="538">Sign</text>
    <rect x="143" y="570" width="172" height="44" rx="10" fill="#7f1d1d"/>
    <text x="168" y="598">True redact</text>
  </g>
  <rect x="382" y="175" width="764" height="662" rx="12" fill="url(#paper)"/>
  <rect x="442" y="236" width="632" height="34" rx="4" fill="#d7dee9"/>
  <rect x="442" y="302" width="516" height="20" rx="4" fill="#b9c5d6"/>
  <rect x="442" y="340" width="594" height="20" rx="4" fill="#c7d1df"/>
  <rect x="442" y="378" width="426" height="20" rx="4" fill="#c7d1df"/>
  <rect x="441" y="438" width="410" height="58" rx="4" fill="none" stroke="#1f6feb" stroke-width="4"/>
  <text x="456" y="477" font-family="Georgia, serif" font-size="42" font-weight="700" fill="#1f4f82">Quarterly report</text>
  <line x1="746" y1="426" x2="746" y2="510" stroke="#1f6feb" stroke-width="2"/>
  <rect x="442" y="540" width="596" height="20" rx="4" fill="#c7d1df"/>
  <rect x="442" y="578" width="490" height="20" rx="4" fill="#c7d1df"/>
  <rect x="442" y="636" width="176" height="24" rx="4" fill="#fee2e2"/>
  <rect x="442" y="636" width="176" height="24" rx="3" fill="#111827"/>
  <rect x="642" y="636" width="358" height="20" rx="4" fill="#c7d1df"/>
  <path d="M858 724c56-42 91-42 143 0" fill="none" stroke="#1f6feb" stroke-width="8" stroke-linecap="round"/>
  <path d="M940 705c26 32 51 40 86 21" fill="none" stroke="#1f6feb" stroke-width="6" stroke-linecap="round"/>
  <text x="870" y="776" font-family="Brush Script MT, cursive" font-size="38" fill="#1f4f82">Signed</text>
  <rect x="1190" y="175" width="292" height="662" rx="16" fill="#172236"/>
  <text x="1220" y="222" font-family="Inter, Arial, sans-serif" font-size="18" font-weight="800" fill="#f8fafc">Local session</text>
  <text x="1220" y="256" font-family="Inter, Arial, sans-serif" font-size="16" fill="#a8bdd8">No upload required</text>
  <rect x="1220" y="300" width="226" height="1" fill="#334155"/>
  <g font-family="Inter, Arial, sans-serif" font-size="16" fill="#dbeafe">
    <text x="1220" y="346">Open source engine</text>
    <text x="1220" y="392">Browser-only workflow</text>
    <text x="1220" y="438">Save edited PDF</text>
    <text x="1220" y="484">Sanitized redaction</text>
  </g>
  <rect x="1220" y="548" width="226" height="148" rx="14" fill="#0b1220"/>
  <text x="1242" y="588" font-family="Inter, Arial, sans-serif" font-size="15" font-weight="700" fill="#9ee8c2">Status</text>
  <text x="1242" y="626" font-family="Inter, Arial, sans-serif" font-size="34" font-weight="800" fill="#ffffff">100%</text>
  <text x="1242" y="660" font-family="Inter, Arial, sans-serif" font-size="15" fill="#a8bdd8">local processing</text>
</svg>
